<svg width="30" height="32" viewBox="0 0 30 32" fill="none" xmlns="http://www.w3.org/2000/svg">
<path d="M6.7207 31.05C6.4207 31.05 6.1707 30.95 5.9707 30.75C5.7707 30.55 5.68737 30.3 5.7207 30L6.7207 23.45H1.1707C0.83737 23.45 0.570703 23.35 0.370703 23.15C0.170703 22.95 0.0707032 22.6833 0.0707032 22.35V21.65C0.0707032 21.3167 0.170703 21.05 0.370703 20.85C0.570703 20.65 0.83737 20.55 1.1707 20.55H7.1207L8.5707 10.75H2.4707C2.13737 10.75 1.8707 10.65 1.6707 10.45C1.4707 10.25 1.3707 9.98333 1.3707 9.65V8.95C1.3707 8.61667 1.4707 8.35 1.6707 8.15C1.8707 7.95 2.13737 7.85 2.4707 7.85H9.0207L10.0207 1.3C10.0874 1 10.204 0.749999 10.3707 0.549998C10.5707 0.349998 10.8207 0.249998 11.1207 0.249998H12.0207C12.3207 0.249998 12.5707 0.349998 12.7707 0.549998C12.9707 0.749999 13.054 1 13.0207 1.3L12.0207 7.85H20.3707L21.3707 1.3C21.4374 1 21.554 0.749999 21.7207 0.549998C21.9207 0.349998 22.1707 0.249998 22.4707 0.249998H23.3707C23.6707 0.249998 23.9207 0.349998 24.1207 0.549998C24.3207 0.749999 24.404 1 24.3707 1.3L23.3707 7.85H28.8207C29.154 7.85 29.4207 7.95 29.6207 8.15C29.8207 8.35 29.9207 8.61667 29.9207 8.95V9.65C29.9207 9.98333 29.8207 10.25 29.6207 10.45C29.4207 10.65 29.154 10.75 28.8207 10.75H22.9707L21.5207 20.55H27.5207C27.854 20.55 28.1207 20.65 28.3207 20.85C28.5207 21.05 28.6207 21.3167 28.6207 21.65V22.35C28.6207 22.6833 28.5207 22.95 28.3207 23.15C28.1207 23.35 27.854 23.45 27.5207 23.45H21.0707L20.1207 30C20.054 30.3 19.9207 30.55 19.7207 30.75C19.5207 30.95 19.2707 31.05 18.9707 31.05H18.0707C17.7707 31.05 17.5207 30.95 17.3207 30.75C17.1207 30.55 17.0374 30.3 17.0707 30L18.0707 23.45H9.7207L8.7707 30C8.70404 30.3 8.5707 30.55 8.3707 30.75C8.1707 30.95 7.9207 31.05 7.6207 31.05H6.7207ZM10.1707 20.55H18.4707L19.9207 10.75H11.6207L10.1707 20.55Z" fill="#46464B"/>
</svg>
