<svg width="18" height="20" fill="none" xmlns="http://www.w3.org/2000/svg"><g clip-path="url(#clip0_100_323)"><path d="M0 15.153a4.95 4.95 0 011.182-3.295c1.477-1.81 2.934-3.638 4.398-5.46C6.865 4.827 8.091 3.256 9.363 1.7a4.499 4.499 0 011.7-1.322A4.47 4.47 0 0113.176 0c.679.02 1.341.21 1.927.556a6.684 6.684 0 012.029 1.77 4.614 4.614 0 01-.11 5.538 1.071 1.071 0 01-1.47.233 1.045 1.045 0 01-.418-1.092 1.04 1.04 0 01.168-.375c.255-.333.436-.716.533-1.124a2.372 2.372 0 00-.752-2.275 5.516 5.516 0 00-1.143-.834 2.357 2.357 0 00-2.94.647L6.356 8.82l-3.673 4.575a2.435 2.435 0 00-.559 1.847 2.44 2.44 0 00.957 1.675c.301.258.626.488.97.685a2.407 2.407 0 002.973-.692 2800.72 2800.72 0 015.549-6.908.775.775 0 00.113-.894.774.774 0 00-.203-.243 3.552 3.552 0 00-.29-.24.776.776 0 00-1.11.175c-.36.44-.72.892-1.079 1.338-1.483 1.842-2.941 3.69-4.45 5.544a1.08 1.08 0 01-.9.452 1.074 1.074 0 01-.88-.49 1.065 1.065 0 01.078-1.241c.366-.465.738-.918 1.105-1.377a3023.02 3023.02 0 014.405-5.48 2.947 2.947 0 012.26-1.208 2.556 2.556 0 011.445.336 3.4 3.4 0 011.51 1.487 2.858 2.858 0 01-.386 3.23c-1.734 2.178-3.487 4.324-5.202 6.495a5.458 5.458 0 01-1.63 1.5 4.434 4.434 0 01-4.862-.22 6 6 0 01-1.625-1.5A4.477 4.477 0 010 15.153z" fill="#004584"/></g><defs><clipPath id="clip0_100_323"><path fill="#fff" d="M0 0h18v20H0z"/></clipPath></defs></svg>