<svg width="21" height="21" fill="none" xmlns="http://www.w3.org/2000/svg"><path d="M10.31 20.802C4.416 20.587-.068 16.168 0 10.274.076 4.187 4.879-.095 10.535.002c6.05.106 10.33 4.8 10.267 10.454-.07 6.066-4.787 10.26-10.491 10.346zm3.072-14.654c0-.527.031-1.126-.018-1.719-.015-.172-.247-.463-.39-.466-.897-.022-1.813-.082-2.689.072-1.05.183-1.721.91-1.9 1.987-.118.717-.164 1.445-.24 2.188l-1.168.218c-.254 2.213-.231 2.276 1.165 2.587.022.048.063.095.063.144.011 1.473.023 2.947.026 4.408 0 2.34 0 2.326 2.35 2.195.542-.03.7-.247.686-.754-.026-1.007 0-2.014 0-3.022V10.9c.51 0 .927.06 1.312-.023.226-.047.54-.294.58-.49.093-.609.15-1.221.174-1.836-.625-.672-2.274.563-2.077-1.329.15-1.528 1.434-.446 2.126-1.073z" fill="#fff"/></svg>