<svg width="40" height="40" viewBox="0 0 40 40" fill="none" xmlns="http://www.w3.org/2000/svg">
<path d="M32.5 10C32.5 10.663 32.2366 11.2989 31.7678 11.7678C31.2989 12.2366 30.663 12.5 30 12.5C29.337 12.5 28.7011 12.2366 28.2322 11.7678C27.7634 11.2989 27.5 10.663 27.5 10C27.5 9.33696 27.7634 8.70107 28.2322 8.23223C28.7011 7.76339 29.337 7.5 30 7.5C30.663 7.5 31.2989 7.76339 31.7678 8.23223C32.2366 8.70107 32.5 9.33696 32.5 10Z" fill="#46464B"/>
<path d="M26.25 0C18.56 0 12.5 6.06 12.5 13.75C12.5 14.7425 12.6 15.74 12.805 16.6875C12.95 17.3625 12.785 17.9475 12.45 18.2825L1.1 29.6325C0.751084 29.981 0.474327 30.3949 0.285573 30.8504C0.09682 31.306 -0.000223141 31.7944 3.85269e-07 32.2875V36.25C3.85269e-07 37.2446 0.395089 38.1984 1.09835 38.9016C1.80161 39.6049 2.75544 40 3.75 40H8.75C9.74456 40 10.6984 39.6049 11.4017 38.9016C12.1049 38.1984 12.5 37.2446 12.5 36.25V35H15C15.663 35 16.2989 34.7366 16.7678 34.2678C17.2366 33.7989 17.5 33.163 17.5 32.5V30H20C20.663 30 21.2989 29.7366 21.7678 29.2678C22.2366 28.7989 22.5 28.163 22.5 27.5V27.05C23.7325 27.385 25.0175 27.5 26.25 27.5C33.94 27.5 40 21.44 40 13.75C40 6.06 33.94 0 26.25 0ZM15 13.75C15 7.44 19.94 2.5 26.25 2.5C32.56 2.5 37.5 7.44 37.5 13.75C37.5 20.06 32.56 25 26.25 25C24.6 25 23.0675 24.7625 21.81 24.1325C21.6194 24.037 21.4076 23.9918 21.1946 24.0013C20.9817 24.0107 20.7747 24.0744 20.5933 24.1864C20.4119 24.2984 20.2622 24.4549 20.1584 24.6411C20.0545 24.8272 20 25.0368 20 25.25V27.5H17.5C16.837 27.5 16.2011 27.7634 15.7322 28.2322C15.2634 28.7011 15 29.337 15 30V32.5H12.5C11.837 32.5 11.2011 32.7634 10.7322 33.2322C10.2634 33.7011 10 34.337 10 35V36.25C10 36.5815 9.8683 36.8995 9.63388 37.1339C9.39946 37.3683 9.08152 37.5 8.75 37.5H3.75C3.41848 37.5 3.10054 37.3683 2.86612 37.1339C2.6317 36.8995 2.5 36.5815 2.5 36.25V32.285C2.50007 31.9541 2.63133 31.6368 2.865 31.4025L14.2175 20.05C15.2975 18.97 15.5225 17.44 15.2475 16.16C15.0807 15.3676 14.9978 14.5598 15 13.75V13.75Z" fill="#46464B"/>
</svg>
