<svg width="156" height="31" fill="none" xmlns="http://www.w3.org/2000/svg"><path d="M36.411.496H59.84v5.355H43.087v5.971h8.046c3.511 0 6.186.734 8.024 2.202 1.838 1.467 2.755 3.582 2.752 6.345 0 2.902-1.024 5.155-3.071 6.758-2.048 1.604-4.933 2.403-8.657 2.4H36.422l-.01-29.03zm13.395 24.056c1.71 0 3.024-.34 3.94-1.019a3.46 3.46 0 001.366-2.96c0-2.55-1.769-3.823-5.306-3.82h-6.72v7.799h6.72zM67.015.5h6.675v18.91L87.542.5h6.302v29.026h-6.632V10.66L73.36 29.526h-6.345V.5zm39.492 27.595a14.388 14.388 0 01-5.641-5.35 14.77 14.77 0 01-2.052-7.704 14.79 14.79 0 012.052-7.738 14.46 14.46 0 015.641-5.377 18.009 18.009 0 0114.887-.6 13.67 13.67 0 015.124 3.814l-4.315 3.985a9.258 9.258 0 00-7.297-3.401 9.63 9.63 0 00-4.81 1.183 8.365 8.365 0 00-3.302 3.302 9.685 9.685 0 00-1.184 4.81 9.702 9.702 0 001.189 4.793 8.41 8.41 0 003.302 3.302 9.692 9.692 0 004.81 1.184 9.22 9.22 0 007.298-3.445l4.314 3.984a13.427 13.427 0 01-5.14 3.852 17.06 17.06 0 01-6.846 1.332 16.663 16.663 0 01-8.024-1.931m29.483.005a14.34 14.34 0 01-5.641-5.35 14.707 14.707 0 01-2.053-7.704 14.727 14.727 0 012.053-7.738 14.412 14.412 0 015.641-5.377 18.004 18.004 0 0114.886-.6 13.691 13.691 0 015.119 3.814l-4.31 3.985a9.272 9.272 0 00-7.297-3.401 9.632 9.632 0 00-4.81 1.183 8.386 8.386 0 00-3.302 3.302 9.682 9.682 0 00-1.178 4.81 9.708 9.708 0 001.178 4.793 8.415 8.415 0 003.302 3.302 9.692 9.692 0 004.81 1.184 9.234 9.234 0 007.297-3.445l4.31 3.984a13.393 13.393 0 01-5.141 3.852 17.058 17.058 0 01-6.84 1.332 16.63 16.63 0 01-8.024-1.931M18.937.5h-5.999L0 29.526h6.868L18.938.5zm1.353 1.597l-3.054 7.468 3.583 8.64h-7.11l-2.08 5.102h11.303l2.57 6.22h7.05L20.291 2.096z" opacity=".7" fill="#fff"/></svg>