<svg width="156" height="31" fill="none" xmlns="http://www.w3.org/2000/svg"><path d="M36.411.84H59.84v5.354H43.087v5.972h8.046c3.511 0 6.186.733 8.024 2.201 1.838 1.468 2.755 3.583 2.752 6.345 0 2.903-1.024 5.155-3.071 6.759-2.048 1.603-4.933 2.403-8.657 2.4H36.422L36.412.84zm13.395 24.055c1.71 0 3.024-.34 3.94-1.018a3.46 3.46 0 001.366-2.96c0-2.55-1.769-3.824-5.306-3.82h-6.72v7.798h6.72zM67.015.844h6.675v18.91L87.542.844h6.302V29.87h-6.632V11.004L73.36 29.869h-6.345V.844zm39.492 27.595a14.39 14.39 0 01-5.641-5.35 14.77 14.77 0 01-2.052-7.704 14.79 14.79 0 012.052-7.738 14.46 14.46 0 015.641-5.377 18.01 18.01 0 0114.887-.6 13.67 13.67 0 015.124 3.814l-4.315 3.985a9.258 9.258 0 00-7.297-3.402 9.63 9.63 0 00-4.81 1.184 8.364 8.364 0 00-3.302 3.302 9.685 9.685 0 00-1.184 4.81 9.702 9.702 0 001.189 4.793 8.41 8.41 0 003.302 3.302 9.692 9.692 0 004.81 1.184 9.217 9.217 0 007.298-3.446l4.314 3.985a13.427 13.427 0 01-5.14 3.852 17.062 17.062 0 01-6.846 1.332 16.664 16.664 0 01-8.024-1.932m29.483.006a14.342 14.342 0 01-5.641-5.35 14.708 14.708 0 01-2.053-7.704 14.727 14.727 0 012.053-7.738 14.412 14.412 0 015.641-5.377 18.005 18.005 0 0114.886-.6 13.691 13.691 0 015.119 3.814l-4.31 3.985a9.272 9.272 0 00-7.297-3.402 9.632 9.632 0 00-4.81 1.184 8.385 8.385 0 00-3.302 3.302 9.682 9.682 0 00-1.178 4.81 9.707 9.707 0 001.178 4.793 8.415 8.415 0 003.302 3.302 9.692 9.692 0 004.81 1.184 9.234 9.234 0 007.297-3.446l4.31 3.985a13.395 13.395 0 01-5.141 3.852 17.058 17.058 0 01-6.84 1.332 16.631 16.631 0 01-8.024-1.932" fill="#004584"/><path d="M18.937.844h-5.999L0 29.87h6.868L18.938.844z" fill="#F1841F"/><path d="M20.29 2.44l-3.054 7.47 3.583 8.64h-7.11l-2.08 5.101h11.303l2.57 6.219h7.05L20.291 2.44z" fill="#004584"/></svg>