<svg width="20" height="20" fill="none" xmlns="http://www.w3.org/2000/svg"><path d="M17.07 2.927C13.164-.977 6.833-.976 2.928 2.93-.977 6.835-.976 13.167 2.93 17.072A10 10 0 1017.07 2.928zM15.145 13.93l-.002.002v-.004l-.506.504a2.667 2.667 0 01-2.517.72 8.859 8.859 0 01-2.573-1.154 11.888 11.888 0 01-2.03-1.636A11.974 11.974 0 016 10.52a9.331 9.331 0 01-1.14-2.307 2.667 2.667 0 01.667-2.723l.593-.594a.423.423 0 01.599 0h.001L8.593 6.77a.423.423 0 01.002.598l-.002.002-1.1 1.1A.897.897 0 007.4 9.637c.398.546.838 1.06 1.317 1.537a12.784 12.784 0 001.733 1.457.903.903 0 001.153-.1l1.064-1.08a.423.423 0 01.6 0l1.876 1.88a.423.423 0 01.002.598z" fill="#FF8515"/></svg>