<svg width="15" height="15" fill="none" xmlns="http://www.w3.org/2000/svg"><g clip-path="url(#clip0_1_102)"><path d="M14.664 11.854l-2.317-2.316c-.461-.46-1.225-.446-1.703.032l-1.167 1.167-.23-.129C8.51 10.2 7.5 9.64 6.44 8.579 5.375 7.514 4.815 6.504 4.405 5.766l-.125-.225.783-.782.385-.386c.478-.478.492-1.242.031-1.703L3.163.353c-.46-.46-1.225-.446-1.703.032l-.653.657.018.018c-.22.279-.402.601-.538.949-.126.33-.204.646-.24.962C-.259 5.507.9 7.824 4.045 10.97c4.347 4.347 7.85 4.019 8.002 4.003.329-.04.644-.118.965-.243a3.76 3.76 0 00.945-.535l.014.012.662-.647c.477-.479.49-1.243.03-1.704z" fill="#fff"/></g><defs><clipPath id="clip0_1_102"><path fill="#fff" d="M0 0h15v15H0z"/></clipPath></defs></svg>