<svg width="46" height="46" fill="none" xmlns="http://www.w3.org/2000/svg"><circle cx="23" cy="23" r="23" fill="#FF8515"/><g clip-path="url(#clip0_41_570)" fill="#fff"><path d="M9.506 35c-.165-.796-.323-1.597-.488-2.393a.769.769 0 01.155-.678.796.796 0 01.644-.29h26.25c.116-.015.232-.015.348 0a.791.791 0 01.472.348c.105.172.14.377.095.573-.165.807-.323 1.608-.488 2.392L9.506 35zm25.324-3.798h-2.402v-.688a2.897 2.897 0 00-.183-1.181 2.942 2.942 0 00-.646-1.014.236.236 0 01-.05-.167.88.88 0 00-.255-.754c-.549-.538-1.104-1.082-1.658-1.615a.893.893 0 00-1.22 0 .841.841 0 000 1.197c.537.544 1.092 1.076 1.64 1.614a.832.832 0 00.799.222.186.186 0 01.134 0 .182.182 0 01.098.09 2.1 2.1 0 01.42 1.196v1.1h-17.13c0-.796-.098-1.59.47-2.267.072-.077.121-.125.243-.101a.962.962 0 00.915-.276c.524-.514 1.054-1.022 1.566-1.543a.847.847 0 00.237-.82.846.846 0 00-.22-.385.87.87 0 00-.389-.224.844.844 0 00-.84.197c-.562.539-1.123 1.089-1.677 1.64a.858.858 0 00-.244.723.265.265 0 01-.061.197c-.27.282-.482.614-.62.976a2.88 2.88 0 00-.19 1.135v.748h-2.44c.043-.359.092-.706.129-1.059.121-1.118.237-2.236.36-3.355.062-.559.182-1.11.359-1.645.138-.45.4-.856.755-1.172a2.66 2.66 0 011.263-.622c.61-.143 1.292-.263 1.932-.425a15.118 15.118 0 003.225-1.238.604.604 0 00.201-.197c.122-.197.232-.407.36-.64a25.81 25.81 0 00.665 4.964c.377 1.621.829 3.224 1.25 4.833h.06c0-.198.055-.395.08-.598.182-1.507.365-2.99.542-4.516a.259.259 0 00-.073-.191 1.818 1.818 0 00-.19-.186c-.225-.275-.23-.412 0-.675.233-.264.428-.455.653-.676a.438.438 0 01.555 0c.262.269.512.55.768.819a.179.179 0 01.03.251 4.118 4.118 0 01-.335.449.262.262 0 00-.085.227c.207 1.639.408 3.272.61 4.91 0 .061.01.122.03.18.957-3.188 1.829-6.388 1.963-9.79.128.226.238.418.335.597.06.117.159.21.28.263a16.937 16.937 0 004.707 1.531c.422.082.832.216 1.22.401.295.152.556.362.766.618.21.255.364.55.453.865.206.6.337 1.223.39 1.855.146 1.399.292 2.799.445 4.222z"/><path d="M26.85 13.218c-.037.562-.067.98-.098 1.405v.126c.153.242.231.522.226.807.027.315.027.63 0 .945a1.41 1.41 0 01-.47.831.363.363 0 00-.116.287 3.692 3.692 0 01-.734 2.07 3.805 3.805 0 01-1.79 1.31 3 3 0 01-1.69.024 2.952 2.952 0 01-1.425-.892 3.734 3.734 0 01-1.133-2.571.29.29 0 00-.086-.192 1.717 1.717 0 01-.537-1.316 3.016 3.016 0 01.19-1.196v-.143a7.249 7.249 0 01.14-2.536c.096-.355.27-.684.51-.965.24-.282.54-.507.88-.662a4.672 4.672 0 014.219-.09c.292.172.566.372.816.598.03.03.061.078.098.084.22.063.417.189.565.361.147.172.24.384.264.608.088.364.145.734.17 1.107z"/></g><defs><clipPath id="clip0_41_570"><path fill="#fff" transform="translate(9 10)" d="M0 0h28v25H0z"/></clipPath></defs></svg>