<svg width="60" height="60" viewBox="0 0 60 60" fill="none" xmlns="http://www.w3.org/2000/svg">
<path d="M30.0001 50.4001C18.7201 50.4001 9.6001 41.2801 9.6001 30.0001C9.6001 18.7201 18.7201 9.6001 30.0001 9.6001C41.2801 9.6001 50.4001 18.7201 50.4001 30.0001C50.4001 41.2801 41.2801 50.4001 30.0001 50.4001ZM30.0001 12.0001C20.0401 12.0001 12.0001 20.0401 12.0001 30.0001C12.0001 39.9601 20.0401 48.0001 30.0001 48.0001C39.9601 48.0001 48.0001 39.9601 48.0001 30.0001C48.0001 20.0401 39.9601 12.0001 30.0001 12.0001Z" fill="#F1841F"/>
<path d="M23.76 23.5201C24.12 22.5601 24.48 21.8401 25.2 21.2401C25.8 20.6401 26.52 20.1601 27.48 19.8001C28.44 19.4401 29.4 19.3201 30.48 19.3201C31.32 19.3201 32.16 19.4401 32.88 19.6801C33.6 19.9201 34.32 20.2801 34.92 20.7601C35.52 21.2401 36 21.8401 36.24 22.5601C36.6 23.2801 36.72 24.1201 36.72 24.9601C36.72 26.1601 36.48 27.1201 36 27.9601C35.52 28.8001 34.8 29.5201 34.08 30.3601L32.52 31.9201C32.16 32.2801 31.8 32.6401 31.68 33.0001C31.44 33.3601 31.32 33.8401 31.32 34.3201C31.2 34.8001 31.2 35.1601 31.2 36.1201H29.28C29.28 35.1601 29.28 34.8001 29.4 34.0801C29.52 33.4801 29.76 32.8801 30 32.2801C30.24 31.8001 30.6 31.3201 31.08 30.8401C31.56 30.3601 32.16 29.8801 32.76 29.1601C33.36 28.5601 33.84 27.9601 34.2 27.3601C34.56 26.7601 34.8 25.9201 34.8 25.2001C34.8 24.6001 34.68 24.0001 34.44 23.5201C34.2 23.0401 33.84 22.5601 33.48 22.2001C33.12 21.8401 32.64 21.6001 32.04 21.3601C31.44 21.1201 30.96 21.0001 30.36 21.0001C29.52 21.0001 28.8 21.1201 28.2 21.4801C27.6 21.7201 27 22.2001 26.64 22.6801C26.28 23.1601 25.92 23.7601 25.68 24.4801C25.44 25.2001 25.2 25.5601 25.2 26.4001H23.28C23.28 25.3201 23.4 24.4801 23.76 23.5201V23.5201ZM31.2 38.4001V40.8001H28.8V38.4001H31.2Z" fill="#F1841F" stroke="#F1841F" stroke-width="0.5"/>
</svg>
