<svg width="62" height="62" fill="none" xmlns="http://www.w3.org/2000/svg"><circle cx="31" cy="31" r="30.5" stroke="#0F4881"/><path d="M35.245 25.931l.12.327h11.388c.237-.012.475.01.706.063a.803.803 0 01.597.701l.001.015.003.014a.896.896 0 01-.426.907l-.02.01-.017.014-7.333 5.32h0c-.176.129-.335.252-.487.37-.29.225-.555.43-.86.61-.304.178-.55.412-.624.762-.06.289.024.574.08.76l.005.018h0l.002.007c.778 2.491 1.542 4.981 2.307 7.473l.766 2.495.01.032.014.03a.997.997 0 01-.207 1.133.92.92 0 01-1.284 0l-.025-.025-.028-.02-8.319-6.081a9.176 9.176 0 00-.427-.304 20.255 20.255 0 01-.142-.098l-.292-.202-.287.21-6.652 4.85h-.001l-.587.424c-.584.422-1.165.842-1.747 1.25l-.024.016-.021.02a.835.835 0 01-1.068.033l-.012-.009-.012-.008a.881.881 0 01-.319-1.05l.007-.018.006-.018c.454-1.46.901-2.92 1.35-4.38a1038.92 1038.92 0 011.712-5.545 1.429 1.429 0 00-.608-1.86 666.681 666.681 0 01-7.733-5.619l-.816-.598-.013-.01-.014-.008a.897.897 0 01-.376-1.014.92.92 0 01.959-.633l.023.002h10.705a1.225 1.225 0 001.356-.97 1184.55 1184.55 0 013.289-10.108l.006-.019.005-.02a.888.888 0 011.078-.654l.018.005.018.003a.912.912 0 01.74.73l.006.031.01.03c.573 1.782 1.155 3.568 1.739 5.359.518 1.59 1.037 3.184 1.553 4.783l.027.084.045.058.002.003a6.372 6.372 0 01.128.32z" fill="#E1ECF9" stroke="#0F4881"/></svg>